<mxfile host="app.diagrams.net" modified="2023-05-28T23:33:57.917Z" agent="Mozilla/5.0 (Windows NT 10.0; Win64; x64) AppleWebKit/537.36 (KHTML, like Gecko) Chrome/113.0.0.0 Safari/537.36" etag="JqXcLDSFTnE-_bsvwNhg" version="21.3.2" type="github">
  <diagram name="PÃ¡gina-1" id="5dX_CYmj3qB6tYsNVG1z">
    <mxGraphModel dx="880" dy="484" grid="1" gridSize="10" guides="1" tooltips="1" connect="1" arrows="1" fold="1" page="1" pageScale="1" pageWidth="827" pageHeight="1169" math="0" shadow="0">
      <root>
        <mxCell id="0" />
        <mxCell id="1" parent="0" />
        <mxCell id="Yt68VW8yV32Zk0q3nS32-7" style="edgeStyle=orthogonalEdgeStyle;rounded=0;orthogonalLoop=1;jettySize=auto;html=1;exitX=0.5;exitY=1;exitDx=0;exitDy=0;entryX=0.5;entryY=0;entryDx=0;entryDy=0;endArrow=none;endFill=0;" edge="1" parent="1" source="Yt68VW8yV32Zk0q3nS32-1" target="Yt68VW8yV32Zk0q3nS32-2">
          <mxGeometry relative="1" as="geometry" />
        </mxCell>
        <mxCell id="Yt68VW8yV32Zk0q3nS32-1" value="Start" style="ellipse;whiteSpace=wrap;html=1;aspect=fixed;fillColor=#ffcd28;gradientColor=#ffa500;strokeColor=#d79b00;" vertex="1" parent="1">
          <mxGeometry x="80" width="40" height="40" as="geometry" />
        </mxCell>
        <mxCell id="Yt68VW8yV32Zk0q3nS32-8" style="edgeStyle=orthogonalEdgeStyle;rounded=0;orthogonalLoop=1;jettySize=auto;html=1;exitX=0.5;exitY=1;exitDx=0;exitDy=0;entryX=0.5;entryY=0;entryDx=0;entryDy=0;endArrow=none;endFill=0;" edge="1" parent="1" source="Yt68VW8yV32Zk0q3nS32-2" target="Yt68VW8yV32Zk0q3nS32-4">
          <mxGeometry relative="1" as="geometry" />
        </mxCell>
        <mxCell id="Yt68VW8yV32Zk0q3nS32-13" style="shape=connector;rounded=0;orthogonalLoop=1;jettySize=auto;html=1;exitX=1;exitY=1;exitDx=0;exitDy=0;entryX=0.5;entryY=0;entryDx=0;entryDy=0;labelBackgroundColor=default;strokeColor=default;fontFamily=Helvetica;fontSize=11;fontColor=default;endArrow=none;endFill=0;" edge="1" parent="1" source="Yt68VW8yV32Zk0q3nS32-2" target="Yt68VW8yV32Zk0q3nS32-5">
          <mxGeometry relative="1" as="geometry" />
        </mxCell>
        <mxCell id="Yt68VW8yV32Zk0q3nS32-24" style="edgeStyle=none;shape=connector;rounded=0;orthogonalLoop=1;jettySize=auto;html=1;exitX=0;exitY=1;exitDx=0;exitDy=0;entryX=0.5;entryY=0;entryDx=0;entryDy=0;labelBackgroundColor=default;strokeColor=default;fontFamily=Helvetica;fontSize=11;fontColor=default;endArrow=none;endFill=0;" edge="1" parent="1" source="Yt68VW8yV32Zk0q3nS32-2" target="Yt68VW8yV32Zk0q3nS32-3">
          <mxGeometry relative="1" as="geometry" />
        </mxCell>
        <mxCell id="Yt68VW8yV32Zk0q3nS32-2" value="A" style="ellipse;whiteSpace=wrap;html=1;aspect=fixed;fillColor=#fff2cc;gradientColor=#ffd966;strokeColor=#d6b656;" vertex="1" parent="1">
          <mxGeometry x="80" y="60" width="40" height="40" as="geometry" />
        </mxCell>
        <mxCell id="Yt68VW8yV32Zk0q3nS32-14" style="edgeStyle=orthogonalEdgeStyle;shape=connector;rounded=0;orthogonalLoop=1;jettySize=auto;html=1;exitX=1;exitY=0.5;exitDx=0;exitDy=0;entryX=0;entryY=0.5;entryDx=0;entryDy=0;labelBackgroundColor=default;strokeColor=default;fontFamily=Helvetica;fontSize=11;fontColor=default;endArrow=none;endFill=0;" edge="1" parent="1" source="Yt68VW8yV32Zk0q3nS32-3" target="Yt68VW8yV32Zk0q3nS32-4">
          <mxGeometry relative="1" as="geometry" />
        </mxCell>
        <mxCell id="Yt68VW8yV32Zk0q3nS32-25" style="edgeStyle=none;shape=connector;rounded=0;orthogonalLoop=1;jettySize=auto;html=1;exitX=0.5;exitY=1;exitDx=0;exitDy=0;entryX=0.5;entryY=0;entryDx=0;entryDy=0;labelBackgroundColor=default;strokeColor=default;fontFamily=Helvetica;fontSize=11;fontColor=default;endArrow=none;endFill=0;" edge="1" parent="1" source="Yt68VW8yV32Zk0q3nS32-3" target="Yt68VW8yV32Zk0q3nS32-15">
          <mxGeometry relative="1" as="geometry" />
        </mxCell>
        <mxCell id="Yt68VW8yV32Zk0q3nS32-3" value="C" style="ellipse;whiteSpace=wrap;html=1;aspect=fixed;fillColor=#fff2cc;gradientColor=#ffd966;strokeColor=#d6b656;" vertex="1" parent="1">
          <mxGeometry x="20" y="120" width="40" height="40" as="geometry" />
        </mxCell>
        <mxCell id="Yt68VW8yV32Zk0q3nS32-26" style="edgeStyle=none;shape=connector;rounded=0;orthogonalLoop=1;jettySize=auto;html=1;exitX=0.5;exitY=1;exitDx=0;exitDy=0;entryX=1;entryY=0;entryDx=0;entryDy=0;labelBackgroundColor=default;strokeColor=default;fontFamily=Helvetica;fontSize=11;fontColor=default;endArrow=none;endFill=0;" edge="1" parent="1" source="Yt68VW8yV32Zk0q3nS32-4" target="Yt68VW8yV32Zk0q3nS32-15">
          <mxGeometry relative="1" as="geometry" />
        </mxCell>
        <mxCell id="Yt68VW8yV32Zk0q3nS32-28" style="edgeStyle=none;shape=connector;rounded=0;orthogonalLoop=1;jettySize=auto;html=1;exitX=0.5;exitY=1;exitDx=0;exitDy=0;entryX=0.5;entryY=0;entryDx=0;entryDy=0;labelBackgroundColor=default;strokeColor=default;fontFamily=Helvetica;fontSize=11;fontColor=default;endArrow=none;endFill=0;" edge="1" parent="1" source="Yt68VW8yV32Zk0q3nS32-4" target="Yt68VW8yV32Zk0q3nS32-16">
          <mxGeometry relative="1" as="geometry" />
        </mxCell>
        <mxCell id="Yt68VW8yV32Zk0q3nS32-29" style="edgeStyle=none;shape=connector;rounded=0;orthogonalLoop=1;jettySize=auto;html=1;exitX=0.5;exitY=1;exitDx=0;exitDy=0;entryX=0.325;entryY=0.025;entryDx=0;entryDy=0;entryPerimeter=0;labelBackgroundColor=default;strokeColor=default;fontFamily=Helvetica;fontSize=11;fontColor=default;endArrow=none;endFill=0;" edge="1" parent="1" source="Yt68VW8yV32Zk0q3nS32-4" target="Yt68VW8yV32Zk0q3nS32-17">
          <mxGeometry relative="1" as="geometry" />
        </mxCell>
        <mxCell id="Yt68VW8yV32Zk0q3nS32-4" value="D" style="ellipse;whiteSpace=wrap;html=1;aspect=fixed;fillColor=#fff2cc;gradientColor=#ffd966;strokeColor=#d6b656;" vertex="1" parent="1">
          <mxGeometry x="80" y="120" width="40" height="40" as="geometry" />
        </mxCell>
        <mxCell id="Yt68VW8yV32Zk0q3nS32-5" value="B" style="ellipse;whiteSpace=wrap;html=1;aspect=fixed;fillColor=#fff2cc;gradientColor=#ffd966;strokeColor=#d6b656;" vertex="1" parent="1">
          <mxGeometry x="140" y="120" width="40" height="40" as="geometry" />
        </mxCell>
        <mxCell id="Yt68VW8yV32Zk0q3nS32-30" style="edgeStyle=none;shape=connector;rounded=0;orthogonalLoop=1;jettySize=auto;html=1;exitX=0.5;exitY=1;exitDx=0;exitDy=0;entryX=0;entryY=0;entryDx=0;entryDy=0;labelBackgroundColor=default;strokeColor=default;fontFamily=Helvetica;fontSize=11;fontColor=default;endArrow=none;endFill=0;" edge="1" parent="1" source="Yt68VW8yV32Zk0q3nS32-15" target="Yt68VW8yV32Zk0q3nS32-22">
          <mxGeometry relative="1" as="geometry" />
        </mxCell>
        <mxCell id="Yt68VW8yV32Zk0q3nS32-15" value="E" style="ellipse;whiteSpace=wrap;html=1;aspect=fixed;fillColor=#fff2cc;gradientColor=#ffd966;strokeColor=#d6b656;" vertex="1" parent="1">
          <mxGeometry x="40" y="200" width="40" height="40" as="geometry" />
        </mxCell>
        <mxCell id="Yt68VW8yV32Zk0q3nS32-31" style="edgeStyle=none;shape=connector;rounded=0;orthogonalLoop=1;jettySize=auto;html=1;exitX=0.5;exitY=1;exitDx=0;exitDy=0;entryX=1;entryY=0;entryDx=0;entryDy=0;labelBackgroundColor=default;strokeColor=default;fontFamily=Helvetica;fontSize=11;fontColor=default;endArrow=none;endFill=0;" edge="1" parent="1" source="Yt68VW8yV32Zk0q3nS32-16" target="Yt68VW8yV32Zk0q3nS32-22">
          <mxGeometry relative="1" as="geometry" />
        </mxCell>
        <mxCell id="Yt68VW8yV32Zk0q3nS32-16" value="G" style="ellipse;whiteSpace=wrap;html=1;aspect=fixed;fillColor=#fff2cc;gradientColor=#ffd966;strokeColor=#d6b656;" vertex="1" parent="1">
          <mxGeometry x="100" y="200" width="40" height="40" as="geometry" />
        </mxCell>
        <mxCell id="Yt68VW8yV32Zk0q3nS32-17" value="F" style="ellipse;whiteSpace=wrap;html=1;aspect=fixed;fillColor=#fff2cc;gradientColor=#ffd966;strokeColor=#d6b656;" vertex="1" parent="1">
          <mxGeometry x="160" y="200" width="40" height="40" as="geometry" />
        </mxCell>
        <mxCell id="Yt68VW8yV32Zk0q3nS32-22" value="Goal" style="ellipse;whiteSpace=wrap;html=1;aspect=fixed;fillColor=#ffcd28;gradientColor=#ffa500;strokeColor=#d79b00;" vertex="1" parent="1">
          <mxGeometry x="80" y="270" width="40" height="40" as="geometry" />
        </mxCell>
        <mxCell id="Yt68VW8yV32Zk0q3nS32-35" style="edgeStyle=orthogonalEdgeStyle;rounded=0;orthogonalLoop=1;jettySize=auto;html=1;exitX=0.5;exitY=1;exitDx=0;exitDy=0;entryX=0.5;entryY=0;entryDx=0;entryDy=0;endArrow=none;endFill=0;" edge="1" parent="1" source="Yt68VW8yV32Zk0q3nS32-36" target="Yt68VW8yV32Zk0q3nS32-40">
          <mxGeometry relative="1" as="geometry" />
        </mxCell>
        <mxCell id="Yt68VW8yV32Zk0q3nS32-36" value="Start" style="ellipse;whiteSpace=wrap;html=1;aspect=fixed;fillColor=#ffcd28;gradientColor=#ffa500;strokeColor=#d79b00;" vertex="1" parent="1">
          <mxGeometry x="294" width="40" height="40" as="geometry" />
        </mxCell>
        <mxCell id="Yt68VW8yV32Zk0q3nS32-37" style="edgeStyle=orthogonalEdgeStyle;rounded=0;orthogonalLoop=1;jettySize=auto;html=1;exitX=0.5;exitY=1;exitDx=0;exitDy=0;entryX=0.5;entryY=0;entryDx=0;entryDy=0;endArrow=none;endFill=0;" edge="1" parent="1" source="Yt68VW8yV32Zk0q3nS32-40" target="Yt68VW8yV32Zk0q3nS32-47">
          <mxGeometry relative="1" as="geometry" />
        </mxCell>
        <mxCell id="Yt68VW8yV32Zk0q3nS32-38" style="shape=connector;rounded=0;orthogonalLoop=1;jettySize=auto;html=1;exitX=1;exitY=1;exitDx=0;exitDy=0;entryX=0.5;entryY=0;entryDx=0;entryDy=0;labelBackgroundColor=default;strokeColor=default;fontFamily=Helvetica;fontSize=11;fontColor=default;endArrow=none;endFill=0;" edge="1" parent="1" source="Yt68VW8yV32Zk0q3nS32-40" target="Yt68VW8yV32Zk0q3nS32-48">
          <mxGeometry relative="1" as="geometry" />
        </mxCell>
        <mxCell id="Yt68VW8yV32Zk0q3nS32-39" style="edgeStyle=none;shape=connector;rounded=0;orthogonalLoop=1;jettySize=auto;html=1;exitX=0;exitY=1;exitDx=0;exitDy=0;entryX=0.5;entryY=0;entryDx=0;entryDy=0;labelBackgroundColor=default;strokeColor=default;fontFamily=Helvetica;fontSize=11;fontColor=default;endArrow=none;endFill=0;" edge="1" parent="1" source="Yt68VW8yV32Zk0q3nS32-40" target="Yt68VW8yV32Zk0q3nS32-43">
          <mxGeometry relative="1" as="geometry" />
        </mxCell>
        <mxCell id="Yt68VW8yV32Zk0q3nS32-40" value="A" style="ellipse;whiteSpace=wrap;html=1;aspect=fixed;fillColor=#fff2cc;gradientColor=#ffd966;strokeColor=#d6b656;" vertex="1" parent="1">
          <mxGeometry x="294" y="60" width="40" height="40" as="geometry" />
        </mxCell>
        <mxCell id="Yt68VW8yV32Zk0q3nS32-41" style="edgeStyle=orthogonalEdgeStyle;shape=connector;rounded=0;orthogonalLoop=1;jettySize=auto;html=1;exitX=1;exitY=0.5;exitDx=0;exitDy=0;entryX=0;entryY=0.5;entryDx=0;entryDy=0;labelBackgroundColor=default;strokeColor=default;fontFamily=Helvetica;fontSize=11;fontColor=default;endArrow=none;endFill=0;" edge="1" parent="1" source="Yt68VW8yV32Zk0q3nS32-43" target="Yt68VW8yV32Zk0q3nS32-47">
          <mxGeometry relative="1" as="geometry" />
        </mxCell>
        <mxCell id="Yt68VW8yV32Zk0q3nS32-42" style="edgeStyle=none;shape=connector;rounded=0;orthogonalLoop=1;jettySize=auto;html=1;exitX=0.5;exitY=1;exitDx=0;exitDy=0;entryX=0.5;entryY=0;entryDx=0;entryDy=0;labelBackgroundColor=default;strokeColor=default;fontFamily=Helvetica;fontSize=11;fontColor=default;endArrow=none;endFill=0;" edge="1" parent="1" source="Yt68VW8yV32Zk0q3nS32-43" target="Yt68VW8yV32Zk0q3nS32-50">
          <mxGeometry relative="1" as="geometry" />
        </mxCell>
        <mxCell id="Yt68VW8yV32Zk0q3nS32-43" value="C" style="ellipse;whiteSpace=wrap;html=1;aspect=fixed;fillColor=#fff2cc;gradientColor=#ffd966;strokeColor=#d6b656;" vertex="1" parent="1">
          <mxGeometry x="234" y="120" width="40" height="40" as="geometry" />
        </mxCell>
        <mxCell id="Yt68VW8yV32Zk0q3nS32-44" style="edgeStyle=none;shape=connector;rounded=0;orthogonalLoop=1;jettySize=auto;html=1;exitX=0.5;exitY=1;exitDx=0;exitDy=0;entryX=1;entryY=0;entryDx=0;entryDy=0;labelBackgroundColor=default;strokeColor=default;fontFamily=Helvetica;fontSize=11;fontColor=default;endArrow=none;endFill=0;" edge="1" parent="1" source="Yt68VW8yV32Zk0q3nS32-47" target="Yt68VW8yV32Zk0q3nS32-50">
          <mxGeometry relative="1" as="geometry" />
        </mxCell>
        <mxCell id="Yt68VW8yV32Zk0q3nS32-45" style="edgeStyle=none;shape=connector;rounded=0;orthogonalLoop=1;jettySize=auto;html=1;exitX=0.5;exitY=1;exitDx=0;exitDy=0;entryX=0.5;entryY=0;entryDx=0;entryDy=0;labelBackgroundColor=default;strokeColor=default;fontFamily=Helvetica;fontSize=11;fontColor=default;endArrow=none;endFill=0;" edge="1" parent="1" source="Yt68VW8yV32Zk0q3nS32-47" target="Yt68VW8yV32Zk0q3nS32-52">
          <mxGeometry relative="1" as="geometry" />
        </mxCell>
        <mxCell id="Yt68VW8yV32Zk0q3nS32-46" style="edgeStyle=none;shape=connector;rounded=0;orthogonalLoop=1;jettySize=auto;html=1;exitX=0.5;exitY=1;exitDx=0;exitDy=0;entryX=0.325;entryY=0.025;entryDx=0;entryDy=0;entryPerimeter=0;labelBackgroundColor=default;strokeColor=default;fontFamily=Helvetica;fontSize=11;fontColor=default;endArrow=none;endFill=0;" edge="1" parent="1" source="Yt68VW8yV32Zk0q3nS32-47" target="Yt68VW8yV32Zk0q3nS32-53">
          <mxGeometry relative="1" as="geometry" />
        </mxCell>
        <mxCell id="Yt68VW8yV32Zk0q3nS32-47" value="D" style="ellipse;whiteSpace=wrap;html=1;aspect=fixed;fillColor=#fff2cc;gradientColor=#ffd966;strokeColor=#d6b656;" vertex="1" parent="1">
          <mxGeometry x="294" y="120" width="40" height="40" as="geometry" />
        </mxCell>
        <mxCell id="Yt68VW8yV32Zk0q3nS32-48" value="B" style="ellipse;whiteSpace=wrap;html=1;aspect=fixed;fillColor=#fff2cc;gradientColor=#ffd966;strokeColor=#d6b656;" vertex="1" parent="1">
          <mxGeometry x="354" y="120" width="40" height="40" as="geometry" />
        </mxCell>
        <mxCell id="Yt68VW8yV32Zk0q3nS32-49" style="edgeStyle=none;shape=connector;rounded=0;orthogonalLoop=1;jettySize=auto;html=1;exitX=0.5;exitY=1;exitDx=0;exitDy=0;entryX=0;entryY=0;entryDx=0;entryDy=0;labelBackgroundColor=default;strokeColor=default;fontFamily=Helvetica;fontSize=11;fontColor=default;endArrow=none;endFill=0;" edge="1" parent="1" source="Yt68VW8yV32Zk0q3nS32-50" target="Yt68VW8yV32Zk0q3nS32-54">
          <mxGeometry relative="1" as="geometry" />
        </mxCell>
        <mxCell id="Yt68VW8yV32Zk0q3nS32-50" value="E" style="ellipse;whiteSpace=wrap;html=1;aspect=fixed;fillColor=#fff2cc;gradientColor=#ffd966;strokeColor=#d6b656;" vertex="1" parent="1">
          <mxGeometry x="254" y="200" width="40" height="40" as="geometry" />
        </mxCell>
        <mxCell id="Yt68VW8yV32Zk0q3nS32-51" style="edgeStyle=none;shape=connector;rounded=0;orthogonalLoop=1;jettySize=auto;html=1;exitX=0.5;exitY=1;exitDx=0;exitDy=0;entryX=1;entryY=0;entryDx=0;entryDy=0;labelBackgroundColor=default;strokeColor=default;fontFamily=Helvetica;fontSize=11;fontColor=default;endArrow=none;endFill=0;" edge="1" parent="1" source="Yt68VW8yV32Zk0q3nS32-52" target="Yt68VW8yV32Zk0q3nS32-54">
          <mxGeometry relative="1" as="geometry" />
        </mxCell>
        <mxCell id="Yt68VW8yV32Zk0q3nS32-52" value="G" style="ellipse;whiteSpace=wrap;html=1;aspect=fixed;fillColor=#fff2cc;gradientColor=#ffd966;strokeColor=#d6b656;" vertex="1" parent="1">
          <mxGeometry x="314" y="200" width="40" height="40" as="geometry" />
        </mxCell>
        <mxCell id="Yt68VW8yV32Zk0q3nS32-53" value="F" style="ellipse;whiteSpace=wrap;html=1;aspect=fixed;fillColor=#fff2cc;gradientColor=#ffd966;strokeColor=#d6b656;" vertex="1" parent="1">
          <mxGeometry x="374" y="200" width="40" height="40" as="geometry" />
        </mxCell>
        <mxCell id="Yt68VW8yV32Zk0q3nS32-54" value="Goal" style="ellipse;whiteSpace=wrap;html=1;aspect=fixed;fillColor=#ffcd28;gradientColor=#ffa500;strokeColor=#d79b00;" vertex="1" parent="1">
          <mxGeometry x="294" y="270" width="40" height="40" as="geometry" />
        </mxCell>
        <mxCell id="Yt68VW8yV32Zk0q3nS32-56" style="edgeStyle=orthogonalEdgeStyle;rounded=0;orthogonalLoop=1;jettySize=auto;html=1;exitX=0.5;exitY=1;exitDx=0;exitDy=0;entryX=0.5;entryY=0;entryDx=0;entryDy=0;endArrow=none;endFill=0;" edge="1" parent="1" source="Yt68VW8yV32Zk0q3nS32-57" target="Yt68VW8yV32Zk0q3nS32-61">
          <mxGeometry relative="1" as="geometry" />
        </mxCell>
        <mxCell id="Yt68VW8yV32Zk0q3nS32-57" value="Start" style="ellipse;whiteSpace=wrap;html=1;aspect=fixed;fillColor=#ffcd28;gradientColor=#ffa500;strokeColor=#d79b00;" vertex="1" parent="1">
          <mxGeometry x="490" width="40" height="40" as="geometry" />
        </mxCell>
        <mxCell id="Yt68VW8yV32Zk0q3nS32-58" style="edgeStyle=orthogonalEdgeStyle;rounded=0;orthogonalLoop=1;jettySize=auto;html=1;exitX=0.5;exitY=1;exitDx=0;exitDy=0;entryX=0.5;entryY=0;entryDx=0;entryDy=0;endArrow=none;endFill=0;" edge="1" parent="1" source="Yt68VW8yV32Zk0q3nS32-61" target="Yt68VW8yV32Zk0q3nS32-68">
          <mxGeometry relative="1" as="geometry" />
        </mxCell>
        <mxCell id="Yt68VW8yV32Zk0q3nS32-59" style="shape=connector;rounded=0;orthogonalLoop=1;jettySize=auto;html=1;exitX=1;exitY=1;exitDx=0;exitDy=0;entryX=0.5;entryY=0;entryDx=0;entryDy=0;labelBackgroundColor=default;strokeColor=default;fontFamily=Helvetica;fontSize=11;fontColor=default;endArrow=none;endFill=0;" edge="1" parent="1" source="Yt68VW8yV32Zk0q3nS32-61" target="Yt68VW8yV32Zk0q3nS32-69">
          <mxGeometry relative="1" as="geometry" />
        </mxCell>
        <mxCell id="Yt68VW8yV32Zk0q3nS32-60" style="edgeStyle=none;shape=connector;rounded=0;orthogonalLoop=1;jettySize=auto;html=1;exitX=0;exitY=1;exitDx=0;exitDy=0;entryX=0.5;entryY=0;entryDx=0;entryDy=0;labelBackgroundColor=default;strokeColor=default;fontFamily=Helvetica;fontSize=11;fontColor=default;endArrow=none;endFill=0;" edge="1" parent="1" source="Yt68VW8yV32Zk0q3nS32-61" target="Yt68VW8yV32Zk0q3nS32-64">
          <mxGeometry relative="1" as="geometry" />
        </mxCell>
        <mxCell id="Yt68VW8yV32Zk0q3nS32-61" value="A" style="ellipse;whiteSpace=wrap;html=1;aspect=fixed;fillColor=#fff2cc;gradientColor=#ffd966;strokeColor=#d6b656;" vertex="1" parent="1">
          <mxGeometry x="490" y="60" width="40" height="40" as="geometry" />
        </mxCell>
        <mxCell id="Yt68VW8yV32Zk0q3nS32-62" style="edgeStyle=orthogonalEdgeStyle;shape=connector;rounded=0;orthogonalLoop=1;jettySize=auto;html=1;exitX=1;exitY=0.5;exitDx=0;exitDy=0;entryX=0;entryY=0.5;entryDx=0;entryDy=0;labelBackgroundColor=default;strokeColor=default;fontFamily=Helvetica;fontSize=11;fontColor=default;endArrow=none;endFill=0;" edge="1" parent="1" source="Yt68VW8yV32Zk0q3nS32-64" target="Yt68VW8yV32Zk0q3nS32-68">
          <mxGeometry relative="1" as="geometry" />
        </mxCell>
        <mxCell id="Yt68VW8yV32Zk0q3nS32-63" style="edgeStyle=none;shape=connector;rounded=0;orthogonalLoop=1;jettySize=auto;html=1;exitX=0.5;exitY=1;exitDx=0;exitDy=0;entryX=0.5;entryY=0;entryDx=0;entryDy=0;labelBackgroundColor=default;strokeColor=default;fontFamily=Helvetica;fontSize=11;fontColor=default;endArrow=none;endFill=0;" edge="1" parent="1" source="Yt68VW8yV32Zk0q3nS32-64" target="Yt68VW8yV32Zk0q3nS32-71">
          <mxGeometry relative="1" as="geometry" />
        </mxCell>
        <mxCell id="Yt68VW8yV32Zk0q3nS32-64" value="C" style="ellipse;whiteSpace=wrap;html=1;aspect=fixed;fillColor=#fff2cc;gradientColor=#ffd966;strokeColor=#d6b656;" vertex="1" parent="1">
          <mxGeometry x="430" y="120" width="40" height="40" as="geometry" />
        </mxCell>
        <mxCell id="Yt68VW8yV32Zk0q3nS32-65" style="edgeStyle=none;shape=connector;rounded=0;orthogonalLoop=1;jettySize=auto;html=1;exitX=0.5;exitY=1;exitDx=0;exitDy=0;entryX=1;entryY=0;entryDx=0;entryDy=0;labelBackgroundColor=default;strokeColor=default;fontFamily=Helvetica;fontSize=11;fontColor=default;endArrow=none;endFill=0;" edge="1" parent="1" source="Yt68VW8yV32Zk0q3nS32-68" target="Yt68VW8yV32Zk0q3nS32-71">
          <mxGeometry relative="1" as="geometry" />
        </mxCell>
        <mxCell id="Yt68VW8yV32Zk0q3nS32-66" style="edgeStyle=none;shape=connector;rounded=0;orthogonalLoop=1;jettySize=auto;html=1;exitX=0.5;exitY=1;exitDx=0;exitDy=0;entryX=0.5;entryY=0;entryDx=0;entryDy=0;labelBackgroundColor=default;strokeColor=default;fontFamily=Helvetica;fontSize=11;fontColor=default;endArrow=none;endFill=0;" edge="1" parent="1" source="Yt68VW8yV32Zk0q3nS32-68" target="Yt68VW8yV32Zk0q3nS32-73">
          <mxGeometry relative="1" as="geometry" />
        </mxCell>
        <mxCell id="Yt68VW8yV32Zk0q3nS32-67" style="edgeStyle=none;shape=connector;rounded=0;orthogonalLoop=1;jettySize=auto;html=1;exitX=0.5;exitY=1;exitDx=0;exitDy=0;entryX=0.325;entryY=0.025;entryDx=0;entryDy=0;entryPerimeter=0;labelBackgroundColor=default;strokeColor=default;fontFamily=Helvetica;fontSize=11;fontColor=default;endArrow=none;endFill=0;" edge="1" parent="1" source="Yt68VW8yV32Zk0q3nS32-68" target="Yt68VW8yV32Zk0q3nS32-74">
          <mxGeometry relative="1" as="geometry" />
        </mxCell>
        <mxCell id="Yt68VW8yV32Zk0q3nS32-68" value="D" style="ellipse;whiteSpace=wrap;html=1;aspect=fixed;fillColor=#fff2cc;gradientColor=#ffd966;strokeColor=#d6b656;" vertex="1" parent="1">
          <mxGeometry x="490" y="120" width="40" height="40" as="geometry" />
        </mxCell>
        <mxCell id="Yt68VW8yV32Zk0q3nS32-69" value="B" style="ellipse;whiteSpace=wrap;html=1;aspect=fixed;fillColor=#fff2cc;gradientColor=#ffd966;strokeColor=#d6b656;" vertex="1" parent="1">
          <mxGeometry x="550" y="120" width="40" height="40" as="geometry" />
        </mxCell>
        <mxCell id="Yt68VW8yV32Zk0q3nS32-70" style="edgeStyle=none;shape=connector;rounded=0;orthogonalLoop=1;jettySize=auto;html=1;exitX=0.5;exitY=1;exitDx=0;exitDy=0;entryX=0;entryY=0;entryDx=0;entryDy=0;labelBackgroundColor=default;strokeColor=default;fontFamily=Helvetica;fontSize=11;fontColor=default;endArrow=none;endFill=0;" edge="1" parent="1" source="Yt68VW8yV32Zk0q3nS32-71" target="Yt68VW8yV32Zk0q3nS32-75">
          <mxGeometry relative="1" as="geometry" />
        </mxCell>
        <mxCell id="Yt68VW8yV32Zk0q3nS32-71" value="E" style="ellipse;whiteSpace=wrap;html=1;aspect=fixed;fillColor=#fff2cc;gradientColor=#ffd966;strokeColor=#d6b656;" vertex="1" parent="1">
          <mxGeometry x="450" y="200" width="40" height="40" as="geometry" />
        </mxCell>
        <mxCell id="Yt68VW8yV32Zk0q3nS32-72" style="edgeStyle=none;shape=connector;rounded=0;orthogonalLoop=1;jettySize=auto;html=1;exitX=0.5;exitY=1;exitDx=0;exitDy=0;entryX=1;entryY=0;entryDx=0;entryDy=0;labelBackgroundColor=default;strokeColor=default;fontFamily=Helvetica;fontSize=11;fontColor=default;endArrow=none;endFill=0;" edge="1" parent="1" source="Yt68VW8yV32Zk0q3nS32-73" target="Yt68VW8yV32Zk0q3nS32-75">
          <mxGeometry relative="1" as="geometry" />
        </mxCell>
        <mxCell id="Yt68VW8yV32Zk0q3nS32-73" value="G" style="ellipse;whiteSpace=wrap;html=1;aspect=fixed;fillColor=#fff2cc;gradientColor=#ffd966;strokeColor=#d6b656;" vertex="1" parent="1">
          <mxGeometry x="510" y="200" width="40" height="40" as="geometry" />
        </mxCell>
        <mxCell id="Yt68VW8yV32Zk0q3nS32-74" value="F" style="ellipse;whiteSpace=wrap;html=1;aspect=fixed;fillColor=#fff2cc;gradientColor=#ffd966;strokeColor=#d6b656;" vertex="1" parent="1">
          <mxGeometry x="570" y="200" width="40" height="40" as="geometry" />
        </mxCell>
        <mxCell id="Yt68VW8yV32Zk0q3nS32-75" value="Goal" style="ellipse;whiteSpace=wrap;html=1;aspect=fixed;fillColor=#ffcd28;gradientColor=#ffa500;strokeColor=#d79b00;" vertex="1" parent="1">
          <mxGeometry x="490" y="270" width="40" height="40" as="geometry" />
        </mxCell>
        <mxCell id="Yt68VW8yV32Zk0q3nS32-76" value="" style="html=1;shadow=0;dashed=0;align=center;verticalAlign=middle;shape=mxgraph.arrows2.arrow;dy=0.7;dx=14;notch=0;fontFamily=Helvetica;fontSize=11;fontColor=#ffffff;fillColor=#a20025;strokeColor=#6F0000;" vertex="1" parent="1">
          <mxGeometry x="414" y="130" width="30" height="20" as="geometry" />
        </mxCell>
        <mxCell id="Yt68VW8yV32Zk0q3nS32-77" style="edgeStyle=orthogonalEdgeStyle;rounded=0;orthogonalLoop=1;jettySize=auto;html=1;exitX=0.5;exitY=1;exitDx=0;exitDy=0;entryX=0.5;entryY=0;entryDx=0;entryDy=0;endArrow=none;endFill=0;" edge="1" parent="1" source="Yt68VW8yV32Zk0q3nS32-78" target="Yt68VW8yV32Zk0q3nS32-82">
          <mxGeometry relative="1" as="geometry" />
        </mxCell>
        <mxCell id="Yt68VW8yV32Zk0q3nS32-78" value="Start" style="ellipse;whiteSpace=wrap;html=1;aspect=fixed;fillColor=#ffcd28;gradientColor=#ffa500;strokeColor=#d79b00;" vertex="1" parent="1">
          <mxGeometry x="707" width="40" height="40" as="geometry" />
        </mxCell>
        <mxCell id="Yt68VW8yV32Zk0q3nS32-79" style="edgeStyle=orthogonalEdgeStyle;rounded=0;orthogonalLoop=1;jettySize=auto;html=1;exitX=0.5;exitY=1;exitDx=0;exitDy=0;entryX=0.5;entryY=0;entryDx=0;entryDy=0;endArrow=none;endFill=0;" edge="1" parent="1" source="Yt68VW8yV32Zk0q3nS32-82" target="Yt68VW8yV32Zk0q3nS32-89">
          <mxGeometry relative="1" as="geometry" />
        </mxCell>
        <mxCell id="Yt68VW8yV32Zk0q3nS32-80" style="shape=connector;rounded=0;orthogonalLoop=1;jettySize=auto;html=1;exitX=1;exitY=1;exitDx=0;exitDy=0;entryX=0.5;entryY=0;entryDx=0;entryDy=0;labelBackgroundColor=default;strokeColor=default;fontFamily=Helvetica;fontSize=11;fontColor=default;endArrow=none;endFill=0;" edge="1" parent="1" source="Yt68VW8yV32Zk0q3nS32-82" target="Yt68VW8yV32Zk0q3nS32-90">
          <mxGeometry relative="1" as="geometry" />
        </mxCell>
        <mxCell id="Yt68VW8yV32Zk0q3nS32-81" style="edgeStyle=none;shape=connector;rounded=0;orthogonalLoop=1;jettySize=auto;html=1;exitX=0;exitY=1;exitDx=0;exitDy=0;entryX=0.5;entryY=0;entryDx=0;entryDy=0;labelBackgroundColor=default;strokeColor=default;fontFamily=Helvetica;fontSize=11;fontColor=default;endArrow=none;endFill=0;" edge="1" parent="1" source="Yt68VW8yV32Zk0q3nS32-82" target="Yt68VW8yV32Zk0q3nS32-85">
          <mxGeometry relative="1" as="geometry" />
        </mxCell>
        <mxCell id="Yt68VW8yV32Zk0q3nS32-82" value="A" style="ellipse;whiteSpace=wrap;html=1;aspect=fixed;fillColor=#fff2cc;gradientColor=#ffd966;strokeColor=#d6b656;" vertex="1" parent="1">
          <mxGeometry x="707" y="60" width="40" height="40" as="geometry" />
        </mxCell>
        <mxCell id="Yt68VW8yV32Zk0q3nS32-83" style="edgeStyle=orthogonalEdgeStyle;shape=connector;rounded=0;orthogonalLoop=1;jettySize=auto;html=1;exitX=1;exitY=0.5;exitDx=0;exitDy=0;entryX=0;entryY=0.5;entryDx=0;entryDy=0;labelBackgroundColor=default;strokeColor=default;fontFamily=Helvetica;fontSize=11;fontColor=default;endArrow=none;endFill=0;" edge="1" parent="1" source="Yt68VW8yV32Zk0q3nS32-85" target="Yt68VW8yV32Zk0q3nS32-89">
          <mxGeometry relative="1" as="geometry" />
        </mxCell>
        <mxCell id="Yt68VW8yV32Zk0q3nS32-84" style="edgeStyle=none;shape=connector;rounded=0;orthogonalLoop=1;jettySize=auto;html=1;exitX=0.5;exitY=1;exitDx=0;exitDy=0;entryX=0.5;entryY=0;entryDx=0;entryDy=0;labelBackgroundColor=default;strokeColor=default;fontFamily=Helvetica;fontSize=11;fontColor=default;endArrow=none;endFill=0;" edge="1" parent="1" source="Yt68VW8yV32Zk0q3nS32-85" target="Yt68VW8yV32Zk0q3nS32-92">
          <mxGeometry relative="1" as="geometry" />
        </mxCell>
        <mxCell id="Yt68VW8yV32Zk0q3nS32-85" value="C" style="ellipse;whiteSpace=wrap;html=1;aspect=fixed;fillColor=#fff2cc;gradientColor=#ffd966;strokeColor=#d6b656;" vertex="1" parent="1">
          <mxGeometry x="647" y="120" width="40" height="40" as="geometry" />
        </mxCell>
        <mxCell id="Yt68VW8yV32Zk0q3nS32-86" style="edgeStyle=none;shape=connector;rounded=0;orthogonalLoop=1;jettySize=auto;html=1;exitX=0.5;exitY=1;exitDx=0;exitDy=0;entryX=1;entryY=0;entryDx=0;entryDy=0;labelBackgroundColor=default;strokeColor=default;fontFamily=Helvetica;fontSize=11;fontColor=default;endArrow=none;endFill=0;" edge="1" parent="1" source="Yt68VW8yV32Zk0q3nS32-89" target="Yt68VW8yV32Zk0q3nS32-92">
          <mxGeometry relative="1" as="geometry" />
        </mxCell>
        <mxCell id="Yt68VW8yV32Zk0q3nS32-87" style="edgeStyle=none;shape=connector;rounded=0;orthogonalLoop=1;jettySize=auto;html=1;exitX=0.5;exitY=1;exitDx=0;exitDy=0;entryX=0.5;entryY=0;entryDx=0;entryDy=0;labelBackgroundColor=default;strokeColor=default;fontFamily=Helvetica;fontSize=11;fontColor=default;endArrow=none;endFill=0;" edge="1" parent="1" source="Yt68VW8yV32Zk0q3nS32-89" target="Yt68VW8yV32Zk0q3nS32-94">
          <mxGeometry relative="1" as="geometry" />
        </mxCell>
        <mxCell id="Yt68VW8yV32Zk0q3nS32-88" style="edgeStyle=none;shape=connector;rounded=0;orthogonalLoop=1;jettySize=auto;html=1;exitX=0.5;exitY=1;exitDx=0;exitDy=0;entryX=0.325;entryY=0.025;entryDx=0;entryDy=0;entryPerimeter=0;labelBackgroundColor=default;strokeColor=default;fontFamily=Helvetica;fontSize=11;fontColor=default;endArrow=none;endFill=0;" edge="1" parent="1" source="Yt68VW8yV32Zk0q3nS32-89" target="Yt68VW8yV32Zk0q3nS32-95">
          <mxGeometry relative="1" as="geometry" />
        </mxCell>
        <mxCell id="Yt68VW8yV32Zk0q3nS32-89" value="D" style="ellipse;whiteSpace=wrap;html=1;aspect=fixed;fillColor=#fff2cc;gradientColor=#ffd966;strokeColor=#d6b656;" vertex="1" parent="1">
          <mxGeometry x="707" y="120" width="40" height="40" as="geometry" />
        </mxCell>
        <mxCell id="Yt68VW8yV32Zk0q3nS32-90" value="B" style="ellipse;whiteSpace=wrap;html=1;aspect=fixed;fillColor=#fff2cc;gradientColor=#ffd966;strokeColor=#d6b656;" vertex="1" parent="1">
          <mxGeometry x="767" y="120" width="40" height="40" as="geometry" />
        </mxCell>
        <mxCell id="Yt68VW8yV32Zk0q3nS32-91" style="edgeStyle=none;shape=connector;rounded=0;orthogonalLoop=1;jettySize=auto;html=1;exitX=0.5;exitY=1;exitDx=0;exitDy=0;entryX=0;entryY=0;entryDx=0;entryDy=0;labelBackgroundColor=default;strokeColor=default;fontFamily=Helvetica;fontSize=11;fontColor=default;endArrow=none;endFill=0;" edge="1" parent="1" source="Yt68VW8yV32Zk0q3nS32-92" target="Yt68VW8yV32Zk0q3nS32-96">
          <mxGeometry relative="1" as="geometry" />
        </mxCell>
        <mxCell id="Yt68VW8yV32Zk0q3nS32-92" value="E" style="ellipse;whiteSpace=wrap;html=1;aspect=fixed;fillColor=#fff2cc;gradientColor=#ffd966;strokeColor=#d6b656;" vertex="1" parent="1">
          <mxGeometry x="667" y="200" width="40" height="40" as="geometry" />
        </mxCell>
        <mxCell id="Yt68VW8yV32Zk0q3nS32-93" style="edgeStyle=none;shape=connector;rounded=0;orthogonalLoop=1;jettySize=auto;html=1;exitX=0.5;exitY=1;exitDx=0;exitDy=0;entryX=1;entryY=0;entryDx=0;entryDy=0;labelBackgroundColor=default;strokeColor=default;fontFamily=Helvetica;fontSize=11;fontColor=default;endArrow=none;endFill=0;" edge="1" parent="1" source="Yt68VW8yV32Zk0q3nS32-94" target="Yt68VW8yV32Zk0q3nS32-96">
          <mxGeometry relative="1" as="geometry" />
        </mxCell>
        <mxCell id="Yt68VW8yV32Zk0q3nS32-94" value="G" style="ellipse;whiteSpace=wrap;html=1;aspect=fixed;fillColor=#fff2cc;gradientColor=#ffd966;strokeColor=#d6b656;" vertex="1" parent="1">
          <mxGeometry x="727" y="200" width="40" height="40" as="geometry" />
        </mxCell>
        <mxCell id="Yt68VW8yV32Zk0q3nS32-95" value="F" style="ellipse;whiteSpace=wrap;html=1;aspect=fixed;fillColor=#fff2cc;gradientColor=#ffd966;strokeColor=#d6b656;" vertex="1" parent="1">
          <mxGeometry x="787" y="200" width="40" height="40" as="geometry" />
        </mxCell>
        <mxCell id="Yt68VW8yV32Zk0q3nS32-96" value="Goal" style="ellipse;whiteSpace=wrap;html=1;aspect=fixed;fillColor=#ffcd28;gradientColor=#ffa500;strokeColor=#d79b00;" vertex="1" parent="1">
          <mxGeometry x="707" y="270" width="40" height="40" as="geometry" />
        </mxCell>
        <mxCell id="Yt68VW8yV32Zk0q3nS32-98" style="edgeStyle=orthogonalEdgeStyle;rounded=0;orthogonalLoop=1;jettySize=auto;html=1;exitX=0.5;exitY=1;exitDx=0;exitDy=0;entryX=0.5;entryY=0;entryDx=0;entryDy=0;endArrow=none;endFill=0;" edge="1" parent="1" source="Yt68VW8yV32Zk0q3nS32-99" target="Yt68VW8yV32Zk0q3nS32-103">
          <mxGeometry relative="1" as="geometry" />
        </mxCell>
        <mxCell id="Yt68VW8yV32Zk0q3nS32-99" value="Start" style="ellipse;whiteSpace=wrap;html=1;aspect=fixed;fillColor=#ffcd28;gradientColor=#ffa500;strokeColor=#d79b00;" vertex="1" parent="1">
          <mxGeometry x="90" y="360" width="40" height="40" as="geometry" />
        </mxCell>
        <mxCell id="Yt68VW8yV32Zk0q3nS32-100" style="edgeStyle=orthogonalEdgeStyle;rounded=0;orthogonalLoop=1;jettySize=auto;html=1;exitX=0.5;exitY=1;exitDx=0;exitDy=0;entryX=0.5;entryY=0;entryDx=0;entryDy=0;endArrow=none;endFill=0;" edge="1" parent="1" source="Yt68VW8yV32Zk0q3nS32-103" target="Yt68VW8yV32Zk0q3nS32-110">
          <mxGeometry relative="1" as="geometry" />
        </mxCell>
        <mxCell id="Yt68VW8yV32Zk0q3nS32-101" style="shape=connector;rounded=0;orthogonalLoop=1;jettySize=auto;html=1;exitX=1;exitY=1;exitDx=0;exitDy=0;entryX=0.5;entryY=0;entryDx=0;entryDy=0;labelBackgroundColor=default;strokeColor=default;fontFamily=Helvetica;fontSize=11;fontColor=default;endArrow=none;endFill=0;" edge="1" parent="1" source="Yt68VW8yV32Zk0q3nS32-103" target="Yt68VW8yV32Zk0q3nS32-111">
          <mxGeometry relative="1" as="geometry" />
        </mxCell>
        <mxCell id="Yt68VW8yV32Zk0q3nS32-102" style="edgeStyle=none;shape=connector;rounded=0;orthogonalLoop=1;jettySize=auto;html=1;exitX=0;exitY=1;exitDx=0;exitDy=0;entryX=0.5;entryY=0;entryDx=0;entryDy=0;labelBackgroundColor=default;strokeColor=default;fontFamily=Helvetica;fontSize=11;fontColor=default;endArrow=none;endFill=0;" edge="1" parent="1" source="Yt68VW8yV32Zk0q3nS32-103" target="Yt68VW8yV32Zk0q3nS32-106">
          <mxGeometry relative="1" as="geometry" />
        </mxCell>
        <mxCell id="Yt68VW8yV32Zk0q3nS32-103" value="A" style="ellipse;whiteSpace=wrap;html=1;aspect=fixed;fillColor=#fff2cc;gradientColor=#ffd966;strokeColor=#d6b656;" vertex="1" parent="1">
          <mxGeometry x="90" y="420" width="40" height="40" as="geometry" />
        </mxCell>
        <mxCell id="Yt68VW8yV32Zk0q3nS32-104" style="edgeStyle=orthogonalEdgeStyle;shape=connector;rounded=0;orthogonalLoop=1;jettySize=auto;html=1;exitX=1;exitY=0.5;exitDx=0;exitDy=0;entryX=0;entryY=0.5;entryDx=0;entryDy=0;labelBackgroundColor=default;strokeColor=default;fontFamily=Helvetica;fontSize=11;fontColor=default;endArrow=none;endFill=0;" edge="1" parent="1" source="Yt68VW8yV32Zk0q3nS32-106" target="Yt68VW8yV32Zk0q3nS32-110">
          <mxGeometry relative="1" as="geometry" />
        </mxCell>
        <mxCell id="Yt68VW8yV32Zk0q3nS32-105" style="edgeStyle=none;shape=connector;rounded=0;orthogonalLoop=1;jettySize=auto;html=1;exitX=0.5;exitY=1;exitDx=0;exitDy=0;entryX=0.5;entryY=0;entryDx=0;entryDy=0;labelBackgroundColor=default;strokeColor=default;fontFamily=Helvetica;fontSize=11;fontColor=default;endArrow=none;endFill=0;" edge="1" parent="1" source="Yt68VW8yV32Zk0q3nS32-106" target="Yt68VW8yV32Zk0q3nS32-113">
          <mxGeometry relative="1" as="geometry" />
        </mxCell>
        <mxCell id="Yt68VW8yV32Zk0q3nS32-106" value="C" style="ellipse;whiteSpace=wrap;html=1;aspect=fixed;fillColor=#fff2cc;gradientColor=#ffd966;strokeColor=#d6b656;" vertex="1" parent="1">
          <mxGeometry x="30" y="480" width="40" height="40" as="geometry" />
        </mxCell>
        <mxCell id="Yt68VW8yV32Zk0q3nS32-107" style="edgeStyle=none;shape=connector;rounded=0;orthogonalLoop=1;jettySize=auto;html=1;exitX=0.5;exitY=1;exitDx=0;exitDy=0;entryX=1;entryY=0;entryDx=0;entryDy=0;labelBackgroundColor=default;strokeColor=default;fontFamily=Helvetica;fontSize=11;fontColor=default;endArrow=none;endFill=0;" edge="1" parent="1" source="Yt68VW8yV32Zk0q3nS32-110" target="Yt68VW8yV32Zk0q3nS32-113">
          <mxGeometry relative="1" as="geometry" />
        </mxCell>
        <mxCell id="Yt68VW8yV32Zk0q3nS32-108" style="edgeStyle=none;shape=connector;rounded=0;orthogonalLoop=1;jettySize=auto;html=1;exitX=0.5;exitY=1;exitDx=0;exitDy=0;entryX=0.5;entryY=0;entryDx=0;entryDy=0;labelBackgroundColor=default;strokeColor=default;fontFamily=Helvetica;fontSize=11;fontColor=default;endArrow=none;endFill=0;" edge="1" parent="1" source="Yt68VW8yV32Zk0q3nS32-110" target="Yt68VW8yV32Zk0q3nS32-115">
          <mxGeometry relative="1" as="geometry" />
        </mxCell>
        <mxCell id="Yt68VW8yV32Zk0q3nS32-109" style="edgeStyle=none;shape=connector;rounded=0;orthogonalLoop=1;jettySize=auto;html=1;exitX=0.5;exitY=1;exitDx=0;exitDy=0;entryX=0.325;entryY=0.025;entryDx=0;entryDy=0;entryPerimeter=0;labelBackgroundColor=default;strokeColor=default;fontFamily=Helvetica;fontSize=11;fontColor=default;endArrow=none;endFill=0;" edge="1" parent="1" source="Yt68VW8yV32Zk0q3nS32-110" target="Yt68VW8yV32Zk0q3nS32-116">
          <mxGeometry relative="1" as="geometry" />
        </mxCell>
        <mxCell id="Yt68VW8yV32Zk0q3nS32-110" value="D" style="ellipse;whiteSpace=wrap;html=1;aspect=fixed;fillColor=#fff2cc;gradientColor=#ffd966;strokeColor=#d6b656;" vertex="1" parent="1">
          <mxGeometry x="90" y="480" width="40" height="40" as="geometry" />
        </mxCell>
        <mxCell id="Yt68VW8yV32Zk0q3nS32-111" value="B" style="ellipse;whiteSpace=wrap;html=1;aspect=fixed;fillColor=#fff2cc;gradientColor=#ffd966;strokeColor=#d6b656;" vertex="1" parent="1">
          <mxGeometry x="150" y="480" width="40" height="40" as="geometry" />
        </mxCell>
        <mxCell id="Yt68VW8yV32Zk0q3nS32-112" style="edgeStyle=none;shape=connector;rounded=0;orthogonalLoop=1;jettySize=auto;html=1;exitX=0.5;exitY=1;exitDx=0;exitDy=0;entryX=0;entryY=0;entryDx=0;entryDy=0;labelBackgroundColor=default;strokeColor=default;fontFamily=Helvetica;fontSize=11;fontColor=default;endArrow=none;endFill=0;" edge="1" parent="1" source="Yt68VW8yV32Zk0q3nS32-113" target="Yt68VW8yV32Zk0q3nS32-117">
          <mxGeometry relative="1" as="geometry" />
        </mxCell>
        <mxCell id="Yt68VW8yV32Zk0q3nS32-113" value="E" style="ellipse;whiteSpace=wrap;html=1;aspect=fixed;fillColor=#fff2cc;gradientColor=#ffd966;strokeColor=#d6b656;" vertex="1" parent="1">
          <mxGeometry x="50" y="560" width="40" height="40" as="geometry" />
        </mxCell>
        <mxCell id="Yt68VW8yV32Zk0q3nS32-114" style="edgeStyle=none;shape=connector;rounded=0;orthogonalLoop=1;jettySize=auto;html=1;exitX=0.5;exitY=1;exitDx=0;exitDy=0;entryX=1;entryY=0;entryDx=0;entryDy=0;labelBackgroundColor=default;strokeColor=default;fontFamily=Helvetica;fontSize=11;fontColor=default;endArrow=none;endFill=0;" edge="1" parent="1" source="Yt68VW8yV32Zk0q3nS32-115" target="Yt68VW8yV32Zk0q3nS32-117">
          <mxGeometry relative="1" as="geometry" />
        </mxCell>
        <mxCell id="Yt68VW8yV32Zk0q3nS32-115" value="G" style="ellipse;whiteSpace=wrap;html=1;aspect=fixed;fillColor=#fff2cc;gradientColor=#ffd966;strokeColor=#d6b656;" vertex="1" parent="1">
          <mxGeometry x="110" y="560" width="40" height="40" as="geometry" />
        </mxCell>
        <mxCell id="Yt68VW8yV32Zk0q3nS32-116" value="F" style="ellipse;whiteSpace=wrap;html=1;aspect=fixed;fillColor=#fff2cc;gradientColor=#ffd966;strokeColor=#d6b656;" vertex="1" parent="1">
          <mxGeometry x="170" y="560" width="40" height="40" as="geometry" />
        </mxCell>
        <mxCell id="Yt68VW8yV32Zk0q3nS32-117" value="Goal" style="ellipse;whiteSpace=wrap;html=1;aspect=fixed;fillColor=#ffcd28;gradientColor=#ffa500;strokeColor=#d79b00;" vertex="1" parent="1">
          <mxGeometry x="90" y="630" width="40" height="40" as="geometry" />
        </mxCell>
        <mxCell id="Yt68VW8yV32Zk0q3nS32-119" style="edgeStyle=orthogonalEdgeStyle;rounded=0;orthogonalLoop=1;jettySize=auto;html=1;exitX=0.5;exitY=1;exitDx=0;exitDy=0;entryX=0.5;entryY=0;entryDx=0;entryDy=0;endArrow=none;endFill=0;" edge="1" parent="1" source="Yt68VW8yV32Zk0q3nS32-120" target="Yt68VW8yV32Zk0q3nS32-124">
          <mxGeometry relative="1" as="geometry" />
        </mxCell>
        <mxCell id="Yt68VW8yV32Zk0q3nS32-120" value="Start" style="ellipse;whiteSpace=wrap;html=1;aspect=fixed;fillColor=#ffcd28;gradientColor=#ffa500;strokeColor=#d79b00;" vertex="1" parent="1">
          <mxGeometry x="304" y="360" width="40" height="40" as="geometry" />
        </mxCell>
        <mxCell id="Yt68VW8yV32Zk0q3nS32-121" style="edgeStyle=orthogonalEdgeStyle;rounded=0;orthogonalLoop=1;jettySize=auto;html=1;exitX=0.5;exitY=1;exitDx=0;exitDy=0;entryX=0.5;entryY=0;entryDx=0;entryDy=0;endArrow=none;endFill=0;" edge="1" parent="1" source="Yt68VW8yV32Zk0q3nS32-124" target="Yt68VW8yV32Zk0q3nS32-131">
          <mxGeometry relative="1" as="geometry" />
        </mxCell>
        <mxCell id="Yt68VW8yV32Zk0q3nS32-122" style="shape=connector;rounded=0;orthogonalLoop=1;jettySize=auto;html=1;exitX=1;exitY=1;exitDx=0;exitDy=0;entryX=0.5;entryY=0;entryDx=0;entryDy=0;labelBackgroundColor=default;strokeColor=default;fontFamily=Helvetica;fontSize=11;fontColor=default;endArrow=none;endFill=0;" edge="1" parent="1" source="Yt68VW8yV32Zk0q3nS32-124" target="Yt68VW8yV32Zk0q3nS32-132">
          <mxGeometry relative="1" as="geometry" />
        </mxCell>
        <mxCell id="Yt68VW8yV32Zk0q3nS32-123" style="edgeStyle=none;shape=connector;rounded=0;orthogonalLoop=1;jettySize=auto;html=1;exitX=0;exitY=1;exitDx=0;exitDy=0;entryX=0.5;entryY=0;entryDx=0;entryDy=0;labelBackgroundColor=default;strokeColor=default;fontFamily=Helvetica;fontSize=11;fontColor=default;endArrow=none;endFill=0;" edge="1" parent="1" source="Yt68VW8yV32Zk0q3nS32-124" target="Yt68VW8yV32Zk0q3nS32-127">
          <mxGeometry relative="1" as="geometry" />
        </mxCell>
        <mxCell id="Yt68VW8yV32Zk0q3nS32-124" value="A" style="ellipse;whiteSpace=wrap;html=1;aspect=fixed;fillColor=#fff2cc;gradientColor=#ffd966;strokeColor=#d6b656;" vertex="1" parent="1">
          <mxGeometry x="304" y="420" width="40" height="40" as="geometry" />
        </mxCell>
        <mxCell id="Yt68VW8yV32Zk0q3nS32-125" style="edgeStyle=orthogonalEdgeStyle;shape=connector;rounded=0;orthogonalLoop=1;jettySize=auto;html=1;exitX=1;exitY=0.5;exitDx=0;exitDy=0;entryX=0;entryY=0.5;entryDx=0;entryDy=0;labelBackgroundColor=default;strokeColor=default;fontFamily=Helvetica;fontSize=11;fontColor=default;endArrow=none;endFill=0;" edge="1" parent="1" source="Yt68VW8yV32Zk0q3nS32-127" target="Yt68VW8yV32Zk0q3nS32-131">
          <mxGeometry relative="1" as="geometry" />
        </mxCell>
        <mxCell id="Yt68VW8yV32Zk0q3nS32-126" style="edgeStyle=none;shape=connector;rounded=0;orthogonalLoop=1;jettySize=auto;html=1;exitX=0.5;exitY=1;exitDx=0;exitDy=0;entryX=0.5;entryY=0;entryDx=0;entryDy=0;labelBackgroundColor=default;strokeColor=default;fontFamily=Helvetica;fontSize=11;fontColor=default;endArrow=none;endFill=0;" edge="1" parent="1" source="Yt68VW8yV32Zk0q3nS32-127" target="Yt68VW8yV32Zk0q3nS32-134">
          <mxGeometry relative="1" as="geometry" />
        </mxCell>
        <mxCell id="Yt68VW8yV32Zk0q3nS32-127" value="C" style="ellipse;whiteSpace=wrap;html=1;aspect=fixed;fillColor=#fff2cc;gradientColor=#ffd966;strokeColor=#d6b656;" vertex="1" parent="1">
          <mxGeometry x="244" y="480" width="40" height="40" as="geometry" />
        </mxCell>
        <mxCell id="Yt68VW8yV32Zk0q3nS32-128" style="edgeStyle=none;shape=connector;rounded=0;orthogonalLoop=1;jettySize=auto;html=1;exitX=0.5;exitY=1;exitDx=0;exitDy=0;entryX=1;entryY=0;entryDx=0;entryDy=0;labelBackgroundColor=default;strokeColor=default;fontFamily=Helvetica;fontSize=11;fontColor=default;endArrow=none;endFill=0;" edge="1" parent="1" source="Yt68VW8yV32Zk0q3nS32-131" target="Yt68VW8yV32Zk0q3nS32-134">
          <mxGeometry relative="1" as="geometry" />
        </mxCell>
        <mxCell id="Yt68VW8yV32Zk0q3nS32-129" style="edgeStyle=none;shape=connector;rounded=0;orthogonalLoop=1;jettySize=auto;html=1;exitX=0.5;exitY=1;exitDx=0;exitDy=0;entryX=0.5;entryY=0;entryDx=0;entryDy=0;labelBackgroundColor=default;strokeColor=default;fontFamily=Helvetica;fontSize=11;fontColor=default;endArrow=none;endFill=0;" edge="1" parent="1" source="Yt68VW8yV32Zk0q3nS32-131" target="Yt68VW8yV32Zk0q3nS32-136">
          <mxGeometry relative="1" as="geometry" />
        </mxCell>
        <mxCell id="Yt68VW8yV32Zk0q3nS32-130" style="edgeStyle=none;shape=connector;rounded=0;orthogonalLoop=1;jettySize=auto;html=1;exitX=0.5;exitY=1;exitDx=0;exitDy=0;entryX=0.325;entryY=0.025;entryDx=0;entryDy=0;entryPerimeter=0;labelBackgroundColor=default;strokeColor=default;fontFamily=Helvetica;fontSize=11;fontColor=default;endArrow=none;endFill=0;" edge="1" parent="1" source="Yt68VW8yV32Zk0q3nS32-131" target="Yt68VW8yV32Zk0q3nS32-137">
          <mxGeometry relative="1" as="geometry" />
        </mxCell>
        <mxCell id="Yt68VW8yV32Zk0q3nS32-131" value="D" style="ellipse;whiteSpace=wrap;html=1;aspect=fixed;fillColor=#fff2cc;gradientColor=#ffd966;strokeColor=#d6b656;" vertex="1" parent="1">
          <mxGeometry x="304" y="480" width="40" height="40" as="geometry" />
        </mxCell>
        <mxCell id="Yt68VW8yV32Zk0q3nS32-132" value="B" style="ellipse;whiteSpace=wrap;html=1;aspect=fixed;fillColor=#fff2cc;gradientColor=#ffd966;strokeColor=#d6b656;" vertex="1" parent="1">
          <mxGeometry x="364" y="480" width="40" height="40" as="geometry" />
        </mxCell>
        <mxCell id="Yt68VW8yV32Zk0q3nS32-133" style="edgeStyle=none;shape=connector;rounded=0;orthogonalLoop=1;jettySize=auto;html=1;exitX=0.5;exitY=1;exitDx=0;exitDy=0;entryX=0;entryY=0;entryDx=0;entryDy=0;labelBackgroundColor=default;strokeColor=default;fontFamily=Helvetica;fontSize=11;fontColor=default;endArrow=none;endFill=0;" edge="1" parent="1" source="Yt68VW8yV32Zk0q3nS32-134" target="Yt68VW8yV32Zk0q3nS32-138">
          <mxGeometry relative="1" as="geometry" />
        </mxCell>
        <mxCell id="Yt68VW8yV32Zk0q3nS32-134" value="E" style="ellipse;whiteSpace=wrap;html=1;aspect=fixed;fillColor=#fff2cc;gradientColor=#ffd966;strokeColor=#d6b656;" vertex="1" parent="1">
          <mxGeometry x="264" y="560" width="40" height="40" as="geometry" />
        </mxCell>
        <mxCell id="Yt68VW8yV32Zk0q3nS32-135" style="edgeStyle=none;shape=connector;rounded=0;orthogonalLoop=1;jettySize=auto;html=1;exitX=0.5;exitY=1;exitDx=0;exitDy=0;entryX=1;entryY=0;entryDx=0;entryDy=0;labelBackgroundColor=default;strokeColor=default;fontFamily=Helvetica;fontSize=11;fontColor=default;endArrow=none;endFill=0;" edge="1" parent="1" source="Yt68VW8yV32Zk0q3nS32-136" target="Yt68VW8yV32Zk0q3nS32-138">
          <mxGeometry relative="1" as="geometry" />
        </mxCell>
        <mxCell id="Yt68VW8yV32Zk0q3nS32-136" value="G" style="ellipse;whiteSpace=wrap;html=1;aspect=fixed;fillColor=#fff2cc;gradientColor=#ffd966;strokeColor=#d6b656;" vertex="1" parent="1">
          <mxGeometry x="324" y="560" width="40" height="40" as="geometry" />
        </mxCell>
        <mxCell id="Yt68VW8yV32Zk0q3nS32-137" value="F" style="ellipse;whiteSpace=wrap;html=1;aspect=fixed;fillColor=#fff2cc;gradientColor=#ffd966;strokeColor=#d6b656;" vertex="1" parent="1">
          <mxGeometry x="384" y="560" width="40" height="40" as="geometry" />
        </mxCell>
        <mxCell id="Yt68VW8yV32Zk0q3nS32-138" value="Goal" style="ellipse;whiteSpace=wrap;html=1;aspect=fixed;fillColor=#ffcd28;gradientColor=#ffa500;strokeColor=#d79b00;" vertex="1" parent="1">
          <mxGeometry x="304" y="630" width="40" height="40" as="geometry" />
        </mxCell>
        <mxCell id="Yt68VW8yV32Zk0q3nS32-140" style="edgeStyle=orthogonalEdgeStyle;rounded=0;orthogonalLoop=1;jettySize=auto;html=1;exitX=0.5;exitY=1;exitDx=0;exitDy=0;entryX=0.5;entryY=0;entryDx=0;entryDy=0;endArrow=none;endFill=0;" edge="1" parent="1" source="Yt68VW8yV32Zk0q3nS32-141" target="Yt68VW8yV32Zk0q3nS32-145">
          <mxGeometry relative="1" as="geometry" />
        </mxCell>
        <mxCell id="Yt68VW8yV32Zk0q3nS32-141" value="Start" style="ellipse;whiteSpace=wrap;html=1;aspect=fixed;fillColor=#ffcd28;gradientColor=#ffa500;strokeColor=#d79b00;" vertex="1" parent="1">
          <mxGeometry x="500" y="360" width="40" height="40" as="geometry" />
        </mxCell>
        <mxCell id="Yt68VW8yV32Zk0q3nS32-142" style="edgeStyle=orthogonalEdgeStyle;rounded=0;orthogonalLoop=1;jettySize=auto;html=1;exitX=0.5;exitY=1;exitDx=0;exitDy=0;entryX=0.5;entryY=0;entryDx=0;entryDy=0;endArrow=none;endFill=0;" edge="1" parent="1" source="Yt68VW8yV32Zk0q3nS32-145" target="Yt68VW8yV32Zk0q3nS32-152">
          <mxGeometry relative="1" as="geometry" />
        </mxCell>
        <mxCell id="Yt68VW8yV32Zk0q3nS32-143" style="shape=connector;rounded=0;orthogonalLoop=1;jettySize=auto;html=1;exitX=1;exitY=1;exitDx=0;exitDy=0;entryX=0.5;entryY=0;entryDx=0;entryDy=0;labelBackgroundColor=default;strokeColor=default;fontFamily=Helvetica;fontSize=11;fontColor=default;endArrow=none;endFill=0;" edge="1" parent="1" source="Yt68VW8yV32Zk0q3nS32-145" target="Yt68VW8yV32Zk0q3nS32-153">
          <mxGeometry relative="1" as="geometry" />
        </mxCell>
        <mxCell id="Yt68VW8yV32Zk0q3nS32-144" style="edgeStyle=none;shape=connector;rounded=0;orthogonalLoop=1;jettySize=auto;html=1;exitX=0;exitY=1;exitDx=0;exitDy=0;entryX=0.5;entryY=0;entryDx=0;entryDy=0;labelBackgroundColor=default;strokeColor=default;fontFamily=Helvetica;fontSize=11;fontColor=default;endArrow=none;endFill=0;" edge="1" parent="1" source="Yt68VW8yV32Zk0q3nS32-145" target="Yt68VW8yV32Zk0q3nS32-148">
          <mxGeometry relative="1" as="geometry" />
        </mxCell>
        <mxCell id="Yt68VW8yV32Zk0q3nS32-145" value="A" style="ellipse;whiteSpace=wrap;html=1;aspect=fixed;fillColor=#fff2cc;gradientColor=#ffd966;strokeColor=#d6b656;" vertex="1" parent="1">
          <mxGeometry x="500" y="420" width="40" height="40" as="geometry" />
        </mxCell>
        <mxCell id="Yt68VW8yV32Zk0q3nS32-146" style="edgeStyle=orthogonalEdgeStyle;shape=connector;rounded=0;orthogonalLoop=1;jettySize=auto;html=1;exitX=1;exitY=0.5;exitDx=0;exitDy=0;entryX=0;entryY=0.5;entryDx=0;entryDy=0;labelBackgroundColor=default;strokeColor=default;fontFamily=Helvetica;fontSize=11;fontColor=default;endArrow=none;endFill=0;" edge="1" parent="1" source="Yt68VW8yV32Zk0q3nS32-148" target="Yt68VW8yV32Zk0q3nS32-152">
          <mxGeometry relative="1" as="geometry" />
        </mxCell>
        <mxCell id="Yt68VW8yV32Zk0q3nS32-147" style="edgeStyle=none;shape=connector;rounded=0;orthogonalLoop=1;jettySize=auto;html=1;exitX=0.5;exitY=1;exitDx=0;exitDy=0;entryX=0.5;entryY=0;entryDx=0;entryDy=0;labelBackgroundColor=default;strokeColor=default;fontFamily=Helvetica;fontSize=11;fontColor=default;endArrow=none;endFill=0;" edge="1" parent="1" source="Yt68VW8yV32Zk0q3nS32-148" target="Yt68VW8yV32Zk0q3nS32-155">
          <mxGeometry relative="1" as="geometry" />
        </mxCell>
        <mxCell id="Yt68VW8yV32Zk0q3nS32-148" value="C" style="ellipse;whiteSpace=wrap;html=1;aspect=fixed;fillColor=#fff2cc;gradientColor=#ffd966;strokeColor=#d6b656;" vertex="1" parent="1">
          <mxGeometry x="440" y="480" width="40" height="40" as="geometry" />
        </mxCell>
        <mxCell id="Yt68VW8yV32Zk0q3nS32-149" style="edgeStyle=none;shape=connector;rounded=0;orthogonalLoop=1;jettySize=auto;html=1;exitX=0.5;exitY=1;exitDx=0;exitDy=0;entryX=1;entryY=0;entryDx=0;entryDy=0;labelBackgroundColor=default;strokeColor=default;fontFamily=Helvetica;fontSize=11;fontColor=default;endArrow=none;endFill=0;" edge="1" parent="1" source="Yt68VW8yV32Zk0q3nS32-152" target="Yt68VW8yV32Zk0q3nS32-155">
          <mxGeometry relative="1" as="geometry" />
        </mxCell>
        <mxCell id="Yt68VW8yV32Zk0q3nS32-150" style="edgeStyle=none;shape=connector;rounded=0;orthogonalLoop=1;jettySize=auto;html=1;exitX=0.5;exitY=1;exitDx=0;exitDy=0;entryX=0.5;entryY=0;entryDx=0;entryDy=0;labelBackgroundColor=default;strokeColor=default;fontFamily=Helvetica;fontSize=11;fontColor=default;endArrow=none;endFill=0;" edge="1" parent="1" source="Yt68VW8yV32Zk0q3nS32-152" target="Yt68VW8yV32Zk0q3nS32-157">
          <mxGeometry relative="1" as="geometry" />
        </mxCell>
        <mxCell id="Yt68VW8yV32Zk0q3nS32-151" style="edgeStyle=none;shape=connector;rounded=0;orthogonalLoop=1;jettySize=auto;html=1;exitX=0.5;exitY=1;exitDx=0;exitDy=0;entryX=0.325;entryY=0.025;entryDx=0;entryDy=0;entryPerimeter=0;labelBackgroundColor=default;strokeColor=default;fontFamily=Helvetica;fontSize=11;fontColor=default;endArrow=none;endFill=0;" edge="1" parent="1" source="Yt68VW8yV32Zk0q3nS32-152" target="Yt68VW8yV32Zk0q3nS32-158">
          <mxGeometry relative="1" as="geometry" />
        </mxCell>
        <mxCell id="Yt68VW8yV32Zk0q3nS32-152" value="D" style="ellipse;whiteSpace=wrap;html=1;aspect=fixed;fillColor=#fff2cc;gradientColor=#ffd966;strokeColor=#d6b656;" vertex="1" parent="1">
          <mxGeometry x="500" y="480" width="40" height="40" as="geometry" />
        </mxCell>
        <mxCell id="Yt68VW8yV32Zk0q3nS32-153" value="B" style="ellipse;whiteSpace=wrap;html=1;aspect=fixed;fillColor=#fff2cc;gradientColor=#ffd966;strokeColor=#d6b656;" vertex="1" parent="1">
          <mxGeometry x="560" y="480" width="40" height="40" as="geometry" />
        </mxCell>
        <mxCell id="Yt68VW8yV32Zk0q3nS32-154" style="edgeStyle=none;shape=connector;rounded=0;orthogonalLoop=1;jettySize=auto;html=1;exitX=0.5;exitY=1;exitDx=0;exitDy=0;entryX=0;entryY=0;entryDx=0;entryDy=0;labelBackgroundColor=default;strokeColor=default;fontFamily=Helvetica;fontSize=11;fontColor=default;endArrow=none;endFill=0;" edge="1" parent="1" source="Yt68VW8yV32Zk0q3nS32-155" target="Yt68VW8yV32Zk0q3nS32-159">
          <mxGeometry relative="1" as="geometry" />
        </mxCell>
        <mxCell id="Yt68VW8yV32Zk0q3nS32-155" value="E" style="ellipse;whiteSpace=wrap;html=1;aspect=fixed;fillColor=#fff2cc;gradientColor=#ffd966;strokeColor=#d6b656;" vertex="1" parent="1">
          <mxGeometry x="460" y="560" width="40" height="40" as="geometry" />
        </mxCell>
        <mxCell id="Yt68VW8yV32Zk0q3nS32-156" style="edgeStyle=none;shape=connector;rounded=0;orthogonalLoop=1;jettySize=auto;html=1;exitX=0.5;exitY=1;exitDx=0;exitDy=0;entryX=1;entryY=0;entryDx=0;entryDy=0;labelBackgroundColor=default;strokeColor=default;fontFamily=Helvetica;fontSize=11;fontColor=default;endArrow=none;endFill=0;" edge="1" parent="1" source="Yt68VW8yV32Zk0q3nS32-157" target="Yt68VW8yV32Zk0q3nS32-159">
          <mxGeometry relative="1" as="geometry" />
        </mxCell>
        <mxCell id="Yt68VW8yV32Zk0q3nS32-157" value="G" style="ellipse;whiteSpace=wrap;html=1;aspect=fixed;fillColor=#fff2cc;gradientColor=#ffd966;strokeColor=#d6b656;" vertex="1" parent="1">
          <mxGeometry x="520" y="560" width="40" height="40" as="geometry" />
        </mxCell>
        <mxCell id="Yt68VW8yV32Zk0q3nS32-158" value="F" style="ellipse;whiteSpace=wrap;html=1;aspect=fixed;fillColor=#fff2cc;gradientColor=#ffd966;strokeColor=#d6b656;" vertex="1" parent="1">
          <mxGeometry x="580" y="560" width="40" height="40" as="geometry" />
        </mxCell>
        <mxCell id="Yt68VW8yV32Zk0q3nS32-159" value="Goal" style="ellipse;whiteSpace=wrap;html=1;aspect=fixed;fillColor=#ffcd28;gradientColor=#ffa500;strokeColor=#d79b00;" vertex="1" parent="1">
          <mxGeometry x="500" y="630" width="40" height="40" as="geometry" />
        </mxCell>
        <mxCell id="Yt68VW8yV32Zk0q3nS32-161" style="edgeStyle=orthogonalEdgeStyle;rounded=0;orthogonalLoop=1;jettySize=auto;html=1;exitX=0.5;exitY=1;exitDx=0;exitDy=0;entryX=0.5;entryY=0;entryDx=0;entryDy=0;endArrow=none;endFill=0;" edge="1" parent="1" source="Yt68VW8yV32Zk0q3nS32-162" target="Yt68VW8yV32Zk0q3nS32-166">
          <mxGeometry relative="1" as="geometry" />
        </mxCell>
        <mxCell id="Yt68VW8yV32Zk0q3nS32-162" value="Start" style="ellipse;whiteSpace=wrap;html=1;aspect=fixed;fillColor=#ffcd28;gradientColor=#ffa500;strokeColor=#d79b00;" vertex="1" parent="1">
          <mxGeometry x="697" y="360" width="40" height="40" as="geometry" />
        </mxCell>
        <mxCell id="Yt68VW8yV32Zk0q3nS32-163" style="edgeStyle=orthogonalEdgeStyle;rounded=0;orthogonalLoop=1;jettySize=auto;html=1;exitX=0.5;exitY=1;exitDx=0;exitDy=0;entryX=0.5;entryY=0;entryDx=0;entryDy=0;endArrow=none;endFill=0;" edge="1" parent="1" source="Yt68VW8yV32Zk0q3nS32-166" target="Yt68VW8yV32Zk0q3nS32-173">
          <mxGeometry relative="1" as="geometry" />
        </mxCell>
        <mxCell id="Yt68VW8yV32Zk0q3nS32-164" style="shape=connector;rounded=0;orthogonalLoop=1;jettySize=auto;html=1;exitX=1;exitY=1;exitDx=0;exitDy=0;entryX=0.5;entryY=0;entryDx=0;entryDy=0;labelBackgroundColor=default;strokeColor=default;fontFamily=Helvetica;fontSize=11;fontColor=default;endArrow=none;endFill=0;" edge="1" parent="1" source="Yt68VW8yV32Zk0q3nS32-166" target="Yt68VW8yV32Zk0q3nS32-174">
          <mxGeometry relative="1" as="geometry" />
        </mxCell>
        <mxCell id="Yt68VW8yV32Zk0q3nS32-165" style="edgeStyle=none;shape=connector;rounded=0;orthogonalLoop=1;jettySize=auto;html=1;exitX=0;exitY=1;exitDx=0;exitDy=0;entryX=0.5;entryY=0;entryDx=0;entryDy=0;labelBackgroundColor=default;strokeColor=default;fontFamily=Helvetica;fontSize=11;fontColor=default;endArrow=none;endFill=0;" edge="1" parent="1" source="Yt68VW8yV32Zk0q3nS32-166" target="Yt68VW8yV32Zk0q3nS32-169">
          <mxGeometry relative="1" as="geometry" />
        </mxCell>
        <mxCell id="Yt68VW8yV32Zk0q3nS32-166" value="A" style="ellipse;whiteSpace=wrap;html=1;aspect=fixed;fillColor=#fff2cc;gradientColor=#ffd966;strokeColor=#d6b656;" vertex="1" parent="1">
          <mxGeometry x="697" y="420" width="40" height="40" as="geometry" />
        </mxCell>
        <mxCell id="Yt68VW8yV32Zk0q3nS32-167" style="edgeStyle=orthogonalEdgeStyle;shape=connector;rounded=0;orthogonalLoop=1;jettySize=auto;html=1;exitX=1;exitY=0.5;exitDx=0;exitDy=0;entryX=0;entryY=0.5;entryDx=0;entryDy=0;labelBackgroundColor=default;strokeColor=default;fontFamily=Helvetica;fontSize=11;fontColor=default;endArrow=none;endFill=0;" edge="1" parent="1" source="Yt68VW8yV32Zk0q3nS32-169" target="Yt68VW8yV32Zk0q3nS32-173">
          <mxGeometry relative="1" as="geometry" />
        </mxCell>
        <mxCell id="Yt68VW8yV32Zk0q3nS32-168" style="edgeStyle=none;shape=connector;rounded=0;orthogonalLoop=1;jettySize=auto;html=1;exitX=0.5;exitY=1;exitDx=0;exitDy=0;entryX=0.5;entryY=0;entryDx=0;entryDy=0;labelBackgroundColor=default;strokeColor=default;fontFamily=Helvetica;fontSize=11;fontColor=default;endArrow=none;endFill=0;" edge="1" parent="1" source="Yt68VW8yV32Zk0q3nS32-169" target="Yt68VW8yV32Zk0q3nS32-176">
          <mxGeometry relative="1" as="geometry" />
        </mxCell>
        <mxCell id="Yt68VW8yV32Zk0q3nS32-169" value="C" style="ellipse;whiteSpace=wrap;html=1;aspect=fixed;fillColor=#fff2cc;gradientColor=#ffd966;strokeColor=#d6b656;" vertex="1" parent="1">
          <mxGeometry x="637" y="480" width="40" height="40" as="geometry" />
        </mxCell>
        <mxCell id="Yt68VW8yV32Zk0q3nS32-170" style="edgeStyle=none;shape=connector;rounded=0;orthogonalLoop=1;jettySize=auto;html=1;exitX=0.5;exitY=1;exitDx=0;exitDy=0;entryX=1;entryY=0;entryDx=0;entryDy=0;labelBackgroundColor=default;strokeColor=default;fontFamily=Helvetica;fontSize=11;fontColor=default;endArrow=none;endFill=0;" edge="1" parent="1" source="Yt68VW8yV32Zk0q3nS32-173" target="Yt68VW8yV32Zk0q3nS32-176">
          <mxGeometry relative="1" as="geometry" />
        </mxCell>
        <mxCell id="Yt68VW8yV32Zk0q3nS32-171" style="edgeStyle=none;shape=connector;rounded=0;orthogonalLoop=1;jettySize=auto;html=1;exitX=0.5;exitY=1;exitDx=0;exitDy=0;entryX=0.5;entryY=0;entryDx=0;entryDy=0;labelBackgroundColor=default;strokeColor=default;fontFamily=Helvetica;fontSize=11;fontColor=default;endArrow=none;endFill=0;" edge="1" parent="1" source="Yt68VW8yV32Zk0q3nS32-173" target="Yt68VW8yV32Zk0q3nS32-178">
          <mxGeometry relative="1" as="geometry" />
        </mxCell>
        <mxCell id="Yt68VW8yV32Zk0q3nS32-172" style="edgeStyle=none;shape=connector;rounded=0;orthogonalLoop=1;jettySize=auto;html=1;exitX=0.5;exitY=1;exitDx=0;exitDy=0;entryX=0.325;entryY=0.025;entryDx=0;entryDy=0;entryPerimeter=0;labelBackgroundColor=default;strokeColor=default;fontFamily=Helvetica;fontSize=11;fontColor=default;endArrow=none;endFill=0;" edge="1" parent="1" source="Yt68VW8yV32Zk0q3nS32-173" target="Yt68VW8yV32Zk0q3nS32-179">
          <mxGeometry relative="1" as="geometry" />
        </mxCell>
        <mxCell id="Yt68VW8yV32Zk0q3nS32-173" value="D" style="ellipse;whiteSpace=wrap;html=1;aspect=fixed;fillColor=#fff2cc;gradientColor=#ffd966;strokeColor=#d6b656;" vertex="1" parent="1">
          <mxGeometry x="697" y="480" width="40" height="40" as="geometry" />
        </mxCell>
        <mxCell id="Yt68VW8yV32Zk0q3nS32-174" value="B" style="ellipse;whiteSpace=wrap;html=1;aspect=fixed;fillColor=#fff2cc;gradientColor=#ffd966;strokeColor=#d6b656;" vertex="1" parent="1">
          <mxGeometry x="757" y="480" width="40" height="40" as="geometry" />
        </mxCell>
        <mxCell id="Yt68VW8yV32Zk0q3nS32-175" style="edgeStyle=none;shape=connector;rounded=0;orthogonalLoop=1;jettySize=auto;html=1;exitX=0.5;exitY=1;exitDx=0;exitDy=0;entryX=0;entryY=0;entryDx=0;entryDy=0;labelBackgroundColor=default;strokeColor=default;fontFamily=Helvetica;fontSize=11;fontColor=default;endArrow=none;endFill=0;" edge="1" parent="1" source="Yt68VW8yV32Zk0q3nS32-176" target="Yt68VW8yV32Zk0q3nS32-180">
          <mxGeometry relative="1" as="geometry" />
        </mxCell>
        <mxCell id="Yt68VW8yV32Zk0q3nS32-176" value="E" style="ellipse;whiteSpace=wrap;html=1;aspect=fixed;fillColor=#fff2cc;gradientColor=#ffd966;strokeColor=#d6b656;" vertex="1" parent="1">
          <mxGeometry x="657" y="560" width="40" height="40" as="geometry" />
        </mxCell>
        <mxCell id="Yt68VW8yV32Zk0q3nS32-177" style="edgeStyle=none;shape=connector;rounded=0;orthogonalLoop=1;jettySize=auto;html=1;exitX=0.5;exitY=1;exitDx=0;exitDy=0;entryX=1;entryY=0;entryDx=0;entryDy=0;labelBackgroundColor=default;strokeColor=default;fontFamily=Helvetica;fontSize=11;fontColor=default;endArrow=none;endFill=0;" edge="1" parent="1" source="Yt68VW8yV32Zk0q3nS32-178" target="Yt68VW8yV32Zk0q3nS32-180">
          <mxGeometry relative="1" as="geometry" />
        </mxCell>
        <mxCell id="Yt68VW8yV32Zk0q3nS32-178" value="G" style="ellipse;whiteSpace=wrap;html=1;aspect=fixed;fillColor=#fff2cc;gradientColor=#ffd966;strokeColor=#d6b656;" vertex="1" parent="1">
          <mxGeometry x="717" y="560" width="40" height="40" as="geometry" />
        </mxCell>
        <mxCell id="Yt68VW8yV32Zk0q3nS32-179" value="F" style="ellipse;whiteSpace=wrap;html=1;aspect=fixed;fillColor=#fff2cc;gradientColor=#ffd966;strokeColor=#d6b656;" vertex="1" parent="1">
          <mxGeometry x="777" y="560" width="40" height="40" as="geometry" />
        </mxCell>
        <mxCell id="Yt68VW8yV32Zk0q3nS32-180" value="Goal" style="ellipse;whiteSpace=wrap;html=1;aspect=fixed;fillColor=#ffcd28;gradientColor=#ffa500;strokeColor=#d79b00;" vertex="1" parent="1">
          <mxGeometry x="697" y="630" width="40" height="40" as="geometry" />
        </mxCell>
        <mxCell id="Yt68VW8yV32Zk0q3nS32-183" value="" style="html=1;shadow=0;dashed=0;align=center;verticalAlign=middle;shape=mxgraph.arrows2.arrow;dy=0.7;dx=14;notch=0;fontFamily=Helvetica;fontSize=11;fontColor=#ffffff;fillColor=#a20025;strokeColor=#6F0000;" vertex="1" parent="1">
          <mxGeometry x="55" y="10" width="30" height="20" as="geometry" />
        </mxCell>
        <mxCell id="Yt68VW8yV32Zk0q3nS32-185" value="" style="html=1;shadow=0;dashed=0;align=center;verticalAlign=middle;shape=mxgraph.arrows2.arrow;dy=0.7;dx=14;notch=0;fontFamily=Helvetica;fontSize=11;fontColor=#ffffff;fillColor=#a20025;strokeColor=#6F0000;" vertex="1" parent="1">
          <mxGeometry x="274" y="70" width="30" height="20" as="geometry" />
        </mxCell>
        <mxCell id="Yt68VW8yV32Zk0q3nS32-186" value="" style="html=1;shadow=0;dashed=0;align=center;verticalAlign=middle;shape=mxgraph.arrows2.arrow;dy=0.7;dx=14;notch=0;fontFamily=Helvetica;fontSize=11;fontColor=#ffffff;fillColor=#a20025;strokeColor=#6F0000;" vertex="1" parent="1">
          <mxGeometry x="687" y="130" width="30" height="20" as="geometry" />
        </mxCell>
        <mxCell id="Yt68VW8yV32Zk0q3nS32-187" value="" style="html=1;shadow=0;dashed=0;align=center;verticalAlign=middle;shape=mxgraph.arrows2.arrow;dy=0.7;dx=14;notch=0;fontFamily=Helvetica;fontSize=11;fontColor=#ffffff;fillColor=#a20025;strokeColor=#6F0000;" vertex="1" parent="1">
          <mxGeometry x="130" y="490" width="30" height="20" as="geometry" />
        </mxCell>
        <mxCell id="Yt68VW8yV32Zk0q3nS32-191" value="" style="html=1;shadow=0;dashed=0;align=center;verticalAlign=middle;shape=mxgraph.arrows2.arrow;dy=0.7;dx=14;notch=0;fontFamily=Helvetica;fontSize=11;fontColor=#ffffff;fillColor=#a20025;strokeColor=#6F0000;" vertex="1" parent="1">
          <mxGeometry x="244" y="570" width="30" height="20" as="geometry" />
        </mxCell>
        <mxCell id="Yt68VW8yV32Zk0q3nS32-192" value="" style="html=1;shadow=0;dashed=0;align=center;verticalAlign=middle;shape=mxgraph.arrows2.arrow;dy=0.7;dx=14;notch=0;fontFamily=Helvetica;fontSize=11;fontColor=#ffffff;fillColor=#a20025;strokeColor=#6F0000;" vertex="1" parent="1">
          <mxGeometry x="495" y="575" width="30" height="20" as="geometry" />
        </mxCell>
        <mxCell id="Yt68VW8yV32Zk0q3nS32-193" value="" style="html=1;shadow=0;dashed=0;align=center;verticalAlign=middle;shape=mxgraph.arrows2.arrow;dy=0.7;dx=14;notch=0;fontFamily=Helvetica;fontSize=11;fontColor=#ffffff;fillColor=#a20025;strokeColor=#6F0000;" vertex="1" parent="1">
          <mxGeometry x="757" y="575" width="30" height="20" as="geometry" />
        </mxCell>
        <mxCell id="Yt68VW8yV32Zk0q3nS32-195" style="edgeStyle=orthogonalEdgeStyle;rounded=0;orthogonalLoop=1;jettySize=auto;html=1;exitX=0.5;exitY=1;exitDx=0;exitDy=0;entryX=0.5;entryY=0;entryDx=0;entryDy=0;endArrow=none;endFill=0;" edge="1" parent="1" source="Yt68VW8yV32Zk0q3nS32-196" target="Yt68VW8yV32Zk0q3nS32-200">
          <mxGeometry relative="1" as="geometry" />
        </mxCell>
        <mxCell id="Yt68VW8yV32Zk0q3nS32-196" value="Start" style="ellipse;whiteSpace=wrap;html=1;aspect=fixed;fillColor=#ffcd28;gradientColor=#ffa500;strokeColor=#d79b00;" vertex="1" parent="1">
          <mxGeometry x="390" y="720" width="40" height="40" as="geometry" />
        </mxCell>
        <mxCell id="Yt68VW8yV32Zk0q3nS32-197" style="edgeStyle=orthogonalEdgeStyle;rounded=0;orthogonalLoop=1;jettySize=auto;html=1;exitX=0.5;exitY=1;exitDx=0;exitDy=0;entryX=0.5;entryY=0;entryDx=0;entryDy=0;endArrow=none;endFill=0;" edge="1" parent="1" source="Yt68VW8yV32Zk0q3nS32-200" target="Yt68VW8yV32Zk0q3nS32-207">
          <mxGeometry relative="1" as="geometry" />
        </mxCell>
        <mxCell id="Yt68VW8yV32Zk0q3nS32-198" style="shape=connector;rounded=0;orthogonalLoop=1;jettySize=auto;html=1;exitX=1;exitY=1;exitDx=0;exitDy=0;entryX=0.5;entryY=0;entryDx=0;entryDy=0;labelBackgroundColor=default;strokeColor=default;fontFamily=Helvetica;fontSize=11;fontColor=default;endArrow=none;endFill=0;" edge="1" parent="1" source="Yt68VW8yV32Zk0q3nS32-200" target="Yt68VW8yV32Zk0q3nS32-208">
          <mxGeometry relative="1" as="geometry" />
        </mxCell>
        <mxCell id="Yt68VW8yV32Zk0q3nS32-199" style="edgeStyle=none;shape=connector;rounded=0;orthogonalLoop=1;jettySize=auto;html=1;exitX=0;exitY=1;exitDx=0;exitDy=0;entryX=0.5;entryY=0;entryDx=0;entryDy=0;labelBackgroundColor=default;strokeColor=default;fontFamily=Helvetica;fontSize=11;fontColor=default;endArrow=none;endFill=0;" edge="1" parent="1" source="Yt68VW8yV32Zk0q3nS32-200" target="Yt68VW8yV32Zk0q3nS32-203">
          <mxGeometry relative="1" as="geometry" />
        </mxCell>
        <mxCell id="Yt68VW8yV32Zk0q3nS32-200" value="A" style="ellipse;whiteSpace=wrap;html=1;aspect=fixed;fillColor=#fff2cc;gradientColor=#ffd966;strokeColor=#d6b656;" vertex="1" parent="1">
          <mxGeometry x="390" y="780" width="40" height="40" as="geometry" />
        </mxCell>
        <mxCell id="Yt68VW8yV32Zk0q3nS32-201" style="edgeStyle=orthogonalEdgeStyle;shape=connector;rounded=0;orthogonalLoop=1;jettySize=auto;html=1;exitX=1;exitY=0.5;exitDx=0;exitDy=0;entryX=0;entryY=0.5;entryDx=0;entryDy=0;labelBackgroundColor=default;strokeColor=default;fontFamily=Helvetica;fontSize=11;fontColor=default;endArrow=none;endFill=0;" edge="1" parent="1" source="Yt68VW8yV32Zk0q3nS32-203" target="Yt68VW8yV32Zk0q3nS32-207">
          <mxGeometry relative="1" as="geometry" />
        </mxCell>
        <mxCell id="Yt68VW8yV32Zk0q3nS32-202" style="edgeStyle=none;shape=connector;rounded=0;orthogonalLoop=1;jettySize=auto;html=1;exitX=0.5;exitY=1;exitDx=0;exitDy=0;entryX=0.5;entryY=0;entryDx=0;entryDy=0;labelBackgroundColor=default;strokeColor=default;fontFamily=Helvetica;fontSize=11;fontColor=default;endArrow=none;endFill=0;" edge="1" parent="1" source="Yt68VW8yV32Zk0q3nS32-203" target="Yt68VW8yV32Zk0q3nS32-210">
          <mxGeometry relative="1" as="geometry" />
        </mxCell>
        <mxCell id="Yt68VW8yV32Zk0q3nS32-203" value="C" style="ellipse;whiteSpace=wrap;html=1;aspect=fixed;fillColor=#fff2cc;gradientColor=#ffd966;strokeColor=#d6b656;" vertex="1" parent="1">
          <mxGeometry x="330" y="840" width="40" height="40" as="geometry" />
        </mxCell>
        <mxCell id="Yt68VW8yV32Zk0q3nS32-204" style="edgeStyle=none;shape=connector;rounded=0;orthogonalLoop=1;jettySize=auto;html=1;exitX=0.5;exitY=1;exitDx=0;exitDy=0;entryX=1;entryY=0;entryDx=0;entryDy=0;labelBackgroundColor=default;strokeColor=default;fontFamily=Helvetica;fontSize=11;fontColor=default;endArrow=none;endFill=0;" edge="1" parent="1" source="Yt68VW8yV32Zk0q3nS32-207" target="Yt68VW8yV32Zk0q3nS32-210">
          <mxGeometry relative="1" as="geometry" />
        </mxCell>
        <mxCell id="Yt68VW8yV32Zk0q3nS32-205" style="edgeStyle=none;shape=connector;rounded=0;orthogonalLoop=1;jettySize=auto;html=1;exitX=0.5;exitY=1;exitDx=0;exitDy=0;entryX=0.5;entryY=0;entryDx=0;entryDy=0;labelBackgroundColor=default;strokeColor=default;fontFamily=Helvetica;fontSize=11;fontColor=default;endArrow=none;endFill=0;" edge="1" parent="1" source="Yt68VW8yV32Zk0q3nS32-207" target="Yt68VW8yV32Zk0q3nS32-212">
          <mxGeometry relative="1" as="geometry" />
        </mxCell>
        <mxCell id="Yt68VW8yV32Zk0q3nS32-206" style="edgeStyle=none;shape=connector;rounded=0;orthogonalLoop=1;jettySize=auto;html=1;exitX=0.5;exitY=1;exitDx=0;exitDy=0;entryX=0.325;entryY=0.025;entryDx=0;entryDy=0;entryPerimeter=0;labelBackgroundColor=default;strokeColor=default;fontFamily=Helvetica;fontSize=11;fontColor=default;endArrow=none;endFill=0;" edge="1" parent="1" source="Yt68VW8yV32Zk0q3nS32-207" target="Yt68VW8yV32Zk0q3nS32-213">
          <mxGeometry relative="1" as="geometry" />
        </mxCell>
        <mxCell id="Yt68VW8yV32Zk0q3nS32-207" value="D" style="ellipse;whiteSpace=wrap;html=1;aspect=fixed;fillColor=#fff2cc;gradientColor=#ffd966;strokeColor=#d6b656;" vertex="1" parent="1">
          <mxGeometry x="390" y="840" width="40" height="40" as="geometry" />
        </mxCell>
        <mxCell id="Yt68VW8yV32Zk0q3nS32-208" value="B" style="ellipse;whiteSpace=wrap;html=1;aspect=fixed;fillColor=#fff2cc;gradientColor=#ffd966;strokeColor=#d6b656;" vertex="1" parent="1">
          <mxGeometry x="450" y="840" width="40" height="40" as="geometry" />
        </mxCell>
        <mxCell id="Yt68VW8yV32Zk0q3nS32-209" style="edgeStyle=none;shape=connector;rounded=0;orthogonalLoop=1;jettySize=auto;html=1;exitX=0.5;exitY=1;exitDx=0;exitDy=0;entryX=0;entryY=0;entryDx=0;entryDy=0;labelBackgroundColor=default;strokeColor=default;fontFamily=Helvetica;fontSize=11;fontColor=default;endArrow=none;endFill=0;" edge="1" parent="1" source="Yt68VW8yV32Zk0q3nS32-210" target="Yt68VW8yV32Zk0q3nS32-214">
          <mxGeometry relative="1" as="geometry" />
        </mxCell>
        <mxCell id="Yt68VW8yV32Zk0q3nS32-210" value="E" style="ellipse;whiteSpace=wrap;html=1;aspect=fixed;fillColor=#fff2cc;gradientColor=#ffd966;strokeColor=#d6b656;" vertex="1" parent="1">
          <mxGeometry x="350" y="920" width="40" height="40" as="geometry" />
        </mxCell>
        <mxCell id="Yt68VW8yV32Zk0q3nS32-211" style="edgeStyle=none;shape=connector;rounded=0;orthogonalLoop=1;jettySize=auto;html=1;exitX=0.5;exitY=1;exitDx=0;exitDy=0;entryX=1;entryY=0;entryDx=0;entryDy=0;labelBackgroundColor=default;strokeColor=default;fontFamily=Helvetica;fontSize=11;fontColor=default;endArrow=none;endFill=0;" edge="1" parent="1" source="Yt68VW8yV32Zk0q3nS32-212" target="Yt68VW8yV32Zk0q3nS32-214">
          <mxGeometry relative="1" as="geometry" />
        </mxCell>
        <mxCell id="Yt68VW8yV32Zk0q3nS32-212" value="G" style="ellipse;whiteSpace=wrap;html=1;aspect=fixed;fillColor=#fff2cc;gradientColor=#ffd966;strokeColor=#d6b656;" vertex="1" parent="1">
          <mxGeometry x="410" y="920" width="40" height="40" as="geometry" />
        </mxCell>
        <mxCell id="Yt68VW8yV32Zk0q3nS32-213" value="F" style="ellipse;whiteSpace=wrap;html=1;aspect=fixed;fillColor=#fff2cc;gradientColor=#ffd966;strokeColor=#d6b656;" vertex="1" parent="1">
          <mxGeometry x="470" y="920" width="40" height="40" as="geometry" />
        </mxCell>
        <mxCell id="Yt68VW8yV32Zk0q3nS32-214" value="Goal" style="ellipse;whiteSpace=wrap;html=1;aspect=fixed;fillColor=#ffcd28;gradientColor=#ffa500;strokeColor=#d79b00;" vertex="1" parent="1">
          <mxGeometry x="390" y="990" width="40" height="40" as="geometry" />
        </mxCell>
        <mxCell id="Yt68VW8yV32Zk0q3nS32-215" value="" style="html=1;shadow=0;dashed=0;align=center;verticalAlign=middle;shape=mxgraph.arrows2.arrow;dy=0.7;dx=14;notch=0;fontFamily=Helvetica;fontSize=11;fontColor=#ffffff;fillColor=#a20025;strokeColor=#6F0000;" vertex="1" parent="1">
          <mxGeometry x="369" y="1000" width="30" height="20" as="geometry" />
        </mxCell>
      </root>
    </mxGraphModel>
  </diagram>
</mxfile>
